<svg width="18" height="18" viewBox="0 0 18 18" fill="none" xmlns="http://www.w3.org/2000/svg">
<g filter="url(#filter0_d_2001_1205)">
<path d="M13.5428 4.9146C13.409 4.11572 13.0929 3.3676 12.6241 2.74086C11.7565 1.59244 10.5425 0.992809 9.2666 1.00007L9.2865 11.4804C9.28009 12.4678 9.33926 13.194 9.68762 14.1164C10.2212 15.5292 11.3183 16.5224 12.6664 16.8705C12.8388 16.915 13.4482 17.0495 13.5902 16.9808C13.6519 16.9125 13.6243 16.3674 13.6229 16.2506L13.6193 15.3085L13.6126 11.8381L13.6133 7.35052L13.6103 6.21625C13.6094 5.77171 13.6153 5.35605 13.5428 4.9146Z" fill="white"/>
</g>
<rect x="5" y="1" width="8.6303" height="8.6303" rx="4.31515" fill="white"/>
<defs>
<filter id="filter0_d_2001_1205" x="8.87872" y="0.806061" width="5.13953" height="16.7758" filterUnits="userSpaceOnUse" color-interpolation-filters="sRGB">
<feFlood flood-opacity="0" result="BackgroundImageFix"/>
<feColorMatrix in="SourceAlpha" type="matrix" values="0 0 0 0 0 0 0 0 0 0 0 0 0 0 0 0 0 0 127 0" result="hardAlpha"/>
<feOffset dy="0.193939"/>
<feGaussianBlur stdDeviation="0.193939"/>
<feComposite in2="hardAlpha" operator="out"/>
<feColorMatrix type="matrix" values="0 0 0 0 0 0 0 0 0 0 0 0 0 0 0 0 0 0 0.1 0"/>
<feBlend mode="normal" in2="BackgroundImageFix" result="effect1_dropShadow_2001_1205"/>
<feBlend mode="normal" in="SourceGraphic" in2="effect1_dropShadow_2001_1205" result="shape"/>
</filter>
</defs>
</svg>
